<?xml version="1.0" encoding="UTF-8" standalone="no"?>
<svg width="140px" height="124px" viewBox="0 0 140 124" version="1.1" xmlns="http://www.w3.org/2000/svg" xmlns:xlink="http://www.w3.org/1999/xlink" xmlns:sketch="http://www.bohemiancoding.com/sketch/ns">
    <!-- Generator: Sketch 3.0.3 (7892) - http://www.bohemiancoding.com/sketch -->
    <title>wtl-logo</title>
    <desc>Created with Sketch.</desc>
    <defs></defs>
    <g id="Page-1" stroke="none" stroke-width="1" fill="none" fill-rule="evenodd" sketch:type="MSPage">
        <g id="wtl-logo" sketch:type="MSLayerGroup" transform="translate(-6.000000, 0.000000)">
            <g id="logo" transform="translate(21.836207, 0.000000)" sketch:type="MSShapeGroup">
                <g id="Group">
                    <ellipse id="Oval" fill="#000000" cx="52.6214994" cy="52.7593013" rx="52.6214994" ry="52.7593013"></ellipse>
                    <ellipse id="Oval" fill="#FFFFFF" cx="52.4785548" cy="52.6159824" rx="48.4118526" ry="48.5386306"></ellipse>
                    <path d="M16.2537952,81.7297013 L88.7549615,81.7297013 C91.6663136,77.8562171 94.0475711,73.8958853 95.7755128,69.4868409 L59.4301755,6.3097019 C57.1703091,5.97128171 54.8583889,5.76394837 52.504175,5.76394837 C50.1505712,5.76394837 47.838041,5.9260231 45.5785812,6.26464717 L9.23344728,69.494384 C10.961389,73.9034284 13.3420365,77.8562171 16.2537952,81.7297013 L16.2537952,81.7297013 Z" id="Shape" fill="#000000"></path>
                    <g transform="translate(20.536846, 31.599476)" id="Shape" fill="#FFFFFF">
                        <path d="M12.5406928,44.4019533 C5.59069881,44.4019533 -0.0323302823,38.764199 -0.0323302823,31.7960048 L-0.0323302823,12.665274 C-0.0323302823,5.69728366 5.59090214,0.0593254686 12.5406928,0.0593254686 L15.0679449,0.0593254686 C22.0177356,0.0593254686 27.640968,5.69728366 27.640968,12.665274 L27.640968,31.7960048 C27.640968,38.764199 22.0177356,44.4019533 15.0679449,44.4019533 L12.5406928,44.4019533 L12.5406928,44.4019533 Z M1.42049907,31.7960048 C1.42049907,37.9407778 6.41196931,42.9451155 12.5404895,42.9451155 L15.0677415,42.9451155 C21.1962617,42.9451155 26.187732,37.9405739 26.187732,31.7960048 L26.187732,12.665274 C26.187732,6.52070486 21.1962617,1.51616327 15.0677415,1.51616327 L12.5404895,1.51616327 C6.41196931,1.51616327 1.42049907,6.52050099 1.42049907,12.665274 L1.42049907,31.7960048 L1.42049907,31.7960048 Z"></path>
                        <path d="M60.8124476,44.4019533 L60.8124476,3.0998067 L47.8602045,24.1309911 L34.7184531,3.03640388 L34.7184531,44.4017495 L33.2652171,44.4017495 L33.2652171,0.0593254686 L34.592182,0.0593254686 L47.8602045,21.3439173 L60.9387187,0.0593254686 L62.2652769,0.0593254686 L62.2652769,44.4019533 L60.8124476,44.4019533 L60.8124476,44.4019533 Z"></path>
                    </g>
                </g>
            </g>
            <path d="M104.93582,123.539354 L111.032036,132.410412 C111.107176,132.513198 111.0995,132.667548 111.020693,132.762637 L110.863078,132.952817 C110.77442,133.059793 110.656039,133.081727 110.565206,133.046239 L103.431507,130.699732 L103.382252,130.759163 L107.009035,137.337162 C107.050614,137.43208 107.070486,137.529009 106.971977,137.647871 L106.814363,137.83805 C106.735556,137.93314 106.585617,137.968969 106.471074,137.913728 L96.6425839,133.523089 C96.437208,133.43236 96.3974634,133.238504 96.5353759,133.072097 L97.4416578,131.978565 C97.5204649,131.883475 97.6822582,131.857522 97.7849461,131.902887 L103.53965,134.607519 L103.579054,134.559974 L100.261017,128.600871 C100.209587,128.517839 100.199566,128.409024 100.298075,128.290162 L100.475391,128.07621 C100.5739,127.957348 100.68243,127.9473 100.773263,127.982788 L107.233734,130.150189 L107.273138,130.102644 L103.547717,124.949452 C103.484432,124.856543 103.480253,124.692317 103.55906,124.597227 L104.465342,123.503695 C104.522131,123.435173 104.589,123.39549 104.656855,123.385488 L103.618004,122.812501 C103.482953,122.738012 103.420842,122.562648 103.502566,122.413702 L106.526342,116.902718 C106.608066,116.753773 106.789047,116.712489 106.924099,116.786978 L108.03152,117.397786 C108.166571,117.472275 108.228682,117.647639 108.146958,117.796584 L105.947848,121.804572 L108.16269,123.026189 L109.997758,119.681685 C110.072053,119.54628 110.260464,119.491455 110.395515,119.565944 L111.516441,120.184201 C111.664998,120.266139 111.706174,120.447595 111.63188,120.583 L109.796812,123.927503 L112.16021,125.231057 L114.35932,121.223069 C114.441044,121.074124 114.622025,121.03284 114.757077,121.107328 L115.864498,121.718137 C115.999549,121.792625 116.06166,121.967989 115.979936,122.116935 L112.95616,127.627919 C112.874437,127.776864 112.693455,127.818148 112.558404,127.74366 L104.93582,123.539354 L104.93582,123.539354 Z M104.93582,123.539354 L104.927182,123.526784 C104.852732,123.417481 104.753787,123.371201 104.656855,123.385488 L104.93582,123.539354 L104.93582,123.539354 Z M116.240969,119.489056 C116.384269,119.545982 116.558661,119.482274 116.621115,119.324231 L117.995114,115.84729 C118.687791,114.094451 118.072118,112.254072 116.467158,111.616506 C115.148798,111.092792 113.937797,111.891694 113.393269,112.5564 C113.34486,111.75589 112.842754,110.509182 111.739344,110.070856 C110.234694,109.473138 108.565947,110.339547 107.890303,112.049283 L106.590114,115.339447 C106.527659,115.49749 106.611208,115.663663 106.754508,115.720588 L116.240969,119.489056 Z M111.427679,115.432628 L108.919929,114.436432 L109.527441,112.899107 C109.817003,112.166363 110.517272,111.862738 111.233772,112.147366 C111.950272,112.431993 112.324753,113.162559 112.035191,113.895303 L111.427679,115.432628 Z M115.55472,117.072083 L113.00398,116.058809 L113.622847,114.492748 C113.918086,113.745637 114.73218,113.237885 115.448681,113.522512 C116.193841,113.818525 116.525603,114.615235 116.241719,115.333612 L115.55472,117.072083 Z M119.92533,105.639781 C120.07647,105.67011 120.239722,105.561024 120.269972,105.409488 L120.551299,104.000201 C120.581549,103.848665 120.472748,103.684986 120.321607,103.654657 L111.842629,101.953177 L112.305457,99.6346724 C112.338733,99.4679826 112.226906,99.3194572 112.075766,99.2891277 L110.836414,99.0404266 C110.685274,99.0100972 110.525047,99.1040297 110.491772,99.2707195 L109.169839,105.892852 C109.136564,106.059542 109.24839,106.208068 109.39953,106.238397 L110.638882,106.487098 C110.790022,106.517428 110.950249,106.423495 110.983524,106.256805 L111.446352,103.938301 L119.92533,105.639781 Z M120.596991,99.4107031 C120.750495,99.4247087 120.899824,99.3141891 120.915189,99.1448929 L121.483726,92.8809336 C121.499092,92.7116374 121.372113,92.5759079 121.21861,92.5619024 L119.95988,92.447057 C119.806376,92.4330515 119.657048,92.543571 119.641682,92.7128672 L119.228201,97.268474 L116.541887,97.0233772 L116.88692,93.2219081 C116.900889,93.0680024 116.790658,92.9182829 116.621804,92.9028768 L115.347724,92.7866309 C115.19422,92.7726254 115.043495,92.8985355 115.029526,93.0524411 L114.684493,96.8539103 L112.167033,96.6242196 L112.580514,92.0686128 C112.59588,91.8993166 112.468902,91.7635871 112.315398,91.7495816 L111.056668,91.6347362 C110.903165,91.6207307 110.753836,91.7312502 110.73847,91.9005464 L110.169934,98.1645058 C110.154568,98.333802 110.281546,98.4695315 110.43505,98.483537 L120.596991,99.4107031 Z M115.628522,91.3658291 C118.709707,91.2670713 121.079956,88.7017098 120.981456,85.6124564 C120.937624,84.2377387 120.417685,82.9246672 119.367405,81.9069111 C119.256116,81.8022437 119.054854,81.7777705 118.950952,81.9047971 L117.995508,82.8940682 C117.906027,82.9897085 117.896039,83.1601112 118.00782,83.2802249 C118.552307,83.9121792 118.931761,84.6885817 118.96131,85.6153577 C119.02435,87.5924799 117.438603,89.1276632 115.512862,89.1893868 C113.571716,89.2516043 111.876495,87.8370443 111.813455,85.8599221 C111.785875,84.9949312 112.097225,84.1190769 112.646559,83.4520635 C112.765867,83.324543 112.760942,83.1700803 112.634247,83.0659068 L111.633631,82.1547932 C111.506444,82.0351734 111.321573,82.0410988 111.202758,82.1840656 C110.296487,83.2645329 109.839449,84.4079116 109.889192,85.9679846 C109.987692,89.057238 112.547338,91.4645869 115.628522,91.3658291 Z M119.393797,79.9753103 C119.545528,79.9481056 119.657665,79.7867059 119.630532,79.6345777 L119.378189,78.219785 C119.348342,78.052444 119.190077,77.9552256 119.038346,77.9824303 L114.850573,78.7332807 L113.966016,73.7738999 L118.153788,73.0230496 C118.305519,72.9958449 118.42037,72.849658 118.390523,72.682317 L118.140893,71.2827371 C118.11376,71.1306089 117.952782,71.0181777 117.801051,71.0453824 L107.756465,72.8463351 C107.604734,72.8735398 107.492597,73.0349394 107.51973,73.1870677 L107.76936,74.5866475 C107.799207,74.7539886 107.957472,74.8512069 108.109203,74.8240022 L112.130072,74.1030771 L113.014629,79.0624578 L108.99376,79.7833829 C108.842029,79.8105877 108.727179,79.9567745 108.757026,80.1241156 L109.009369,81.5389082 C109.036502,81.6910365 109.19748,81.8034676 109.349211,81.7762629 L119.393797,79.9753103 Z M116.145723,68.6044101 C116.290942,68.552605 116.375137,68.3749406 116.323467,68.2293406 L115.853272,66.9043815 C115.796436,66.7442216 115.624402,66.6743662 115.479183,66.7261713 L109.234739,68.9537894 L109.229572,68.9392294 L113.735356,60.4753004 L113.611349,60.1258606 C113.559679,59.9802607 113.397001,59.8906648 113.251781,59.9424699 L103.478501,63.4289513 C103.333281,63.4807564 103.249086,63.6584209 103.300756,63.8040208 L103.776118,65.1435399 C103.832955,65.3036998 104.004988,65.3735552 104.150208,65.3217501 L110.147778,63.1822006 L110.152945,63.1967606 L105.8837,71.5435011 L106.012874,71.9075008 C106.064544,72.0531007 106.227223,72.1426966 106.372442,72.0908915 L116.145723,68.6044101 Z M106.980847,61.0260496 C109.675522,59.5247558 110.627378,56.1833501 109.130005,53.481618 C107.632632,50.7798859 104.292467,49.8120288 101.597792,51.3133227 C98.9031164,52.8146166 97.9318008,56.1845439 99.4291734,58.886276 C100.926546,61.5880081 104.286171,62.5273435 106.980847,61.0260496 Z M106.007554,59.2699238 C104.309909,60.2157389 102.124057,59.6125262 101.180712,57.910435 C100.237368,56.2083437 100.873439,54.0152638 102.571084,53.0694486 C104.26873,52.1236335 106.435121,52.7553678 107.378466,54.457459 C108.321811,56.1595502 107.7052,58.3241086 106.007554,59.2699238 Z M104.007595,47.8033653 C104.127722,47.7065306 104.158571,47.5230262 104.052331,47.3905406 L100.517439,42.9823833 C100.411199,42.8498977 100.225819,42.8406958 100.105692,42.9375304 L99.1206521,43.7315748 C99.0005252,43.8284095 98.9696764,44.0119139 99.0759163,44.1443995 L101.538751,47.2156566 L94.7996334,52.648082 C94.6795065,52.7449167 94.6583159,52.9404652 94.7548977,53.0609067 L95.6434498,54.1689681 C95.7496897,54.3014537 95.9350693,54.3106556 96.0551962,54.213821 L104.007595,47.8033653 Z M95.7370215,46.3345307 C97.9229432,44.1550979 97.9326273,40.6800902 95.758887,38.4884442 C93.5851467,36.2967982 90.1083466,36.2761304 87.9224249,38.4555632 C85.7365033,40.634996 85.7158286,44.1427562 87.8895689,46.3344023 C90.0633092,48.5260483 93.5510998,48.5139635 95.7370215,46.3345307 Z M94.3240903,44.9099608 C92.9469596,46.2830035 90.6798744,46.298508 89.310418,44.917771 C87.9409616,43.5370339 87.9582255,41.2531758 89.3353562,39.8801331 C90.7124868,38.5070905 92.9685815,38.5243385 94.3380379,39.9050755 C95.7074943,41.2858125 95.7012209,43.5369181 94.3240903,44.9099608 Z M86.97219,39.0196842 C88.7604079,36.5019975 88.1642115,33.0787043 85.6656563,31.294768 C83.8451009,29.9949149 81.9707081,29.8898192 81.9707081,29.8898192 C81.8936626,29.8917265 81.7987349,29.9188106 81.7272062,30.0195181 L79.4382872,33.2421571 C79.3488763,33.3680414 79.368851,33.5530534 79.4944065,33.6426984 L81.9050728,35.3638832 C82.0431839,35.4624927 82.2151571,35.4335013 82.3135091,35.2950285 L83.0198552,34.3005423 C83.109266,34.1746579 83.0803503,34.0022344 82.9422392,33.9036249 L81.9377949,33.1864646 L82.6977876,32.1164477 C83.0204274,32.1950303 83.7123147,32.3665006 84.4154257,32.8685129 C85.9974255,33.9980404 86.3016109,36.2073118 85.1929158,37.7682776 C84.0752796,39.3418318 81.8755831,39.8013082 80.3061389,38.6807452 C79.6155834,38.1876975 79.1289609,37.4608101 78.9288335,36.596976 C78.8873622,36.415588 78.7743622,36.3349074 78.6023891,36.3638989 L77.2427739,36.6263478 C77.0708008,36.6553392 76.9760632,36.8153649 77.004979,36.9877884 C77.3401734,38.3275039 78.1070129,39.5390464 79.2370127,40.3458518 C81.735568,42.1297881 85.183972,41.5373709 86.97219,39.0196842 Z M79.8344301,28.9404858 C79.9038501,28.802505 79.8424698,28.6156808 79.7048494,28.546079 L78.4249799,27.8987825 C78.2873595,27.8291808 78.1010232,27.8907219 78.0316032,28.0287026 L73.4360008,37.1630297 C73.3665808,37.3010104 73.4279611,37.4878347 73.5655815,37.5574365 L74.845451,38.2047329 C74.9830714,38.2743347 75.1694077,38.2127936 75.2388277,38.0748128 L79.8344301,28.9404858 Z M75.6532718,27.9162145 C75.4834707,27.5253606 74.7873407,26.2400316 72.9986954,25.4813148 C70.9971162,24.6322747 69.1631539,25.4484691 68.544553,26.9144446 C67.7698005,28.7504722 69.011369,30.2503878 70.1541145,31.3895573 C71.1057653,32.3469852 71.4388158,33.0252317 71.1565416,33.694172 C70.9643549,34.1496207 70.2960697,34.5037976 69.4869207,34.1605686 C68.7061628,33.8293828 67.9275891,32.6601055 67.8440535,32.5407692 C67.721753,32.3546483 67.4607724,32.378187 67.2751376,32.5008078 L66.3933724,33.0832564 C66.2339449,33.1834332 66.1744325,33.443455 66.2803535,33.5890673 C66.4741779,33.9229901 67.2691312,35.132776 68.7170821,35.7469752 C70.9741821,36.7044035 72.5296923,35.635851 73.0642115,34.3691343 C73.7728999,32.6896672 72.7988637,31.2696742 71.6926993,30.1628021 C70.7044674,29.1730767 70.3042609,28.4160026 70.6105584,27.6901312 C70.8688093,27.078122 71.6266359,26.8290487 72.3648069,27.1421698 C73.2875208,27.5335713 74.08302,28.8610513 74.1359805,28.9338574 C74.2217,29.0876809 74.4630252,29.1900474 74.6606716,29.0389611 L75.5440748,28.3733055 C75.7679285,28.1997752 75.7269797,28.0985035 75.6532718,27.9162145 Z M66.1569104,23.9515271 C66.2000997,23.8031762 66.1058029,23.6306882 65.9578395,23.5873858 L64.5817793,23.1846733 C64.4338158,23.1413709 64.2617784,23.2359146 64.218589,23.3842655 L61.7956689,31.7067531 L59.5318279,31.0442263 C59.3690681,30.9965936 59.211827,31.0954675 59.1686377,31.2438185 L58.8144853,32.4602962 C58.771296,32.6086471 58.8507964,32.7768049 59.0135562,32.8244375 L65.4795594,34.7167528 C65.6423192,34.7643855 65.7995604,34.6655115 65.8427497,34.5171606 L66.196902,33.3006829 C66.2400913,33.152332 66.1605909,32.9841742 65.9978311,32.9365416 L63.7339902,32.2740147 L66.1569104,23.9515271 Z M56.6666438,22.2929954 C56.6865549,22.1397487 56.5821978,21.9858559 56.4140667,21.9638963 L50.8198854,21.2332394 C50.6517542,21.2112797 50.511557,21.3332312 50.4916459,21.4864779 L50.3283743,22.7431013 C50.3084632,22.896348 50.4128203,23.0502407 50.5809514,23.0722004 L54.4785368,23.5812646 L53.3615206,32.1784072 C53.3416094,32.3316539 53.4612512,32.487543 53.6140977,32.5075063 L55.0202853,32.6911687 C55.1884165,32.7131283 55.3286137,32.5911769 55.3485249,32.4379301 L56.6666438,22.2929954 Z M49.6832933,26.9698104 C49.7583218,23.8798944 47.3679024,21.3636073 44.2860569,21.2883823 C41.2042114,21.2131574 38.6790874,23.6094606 38.6040589,26.6993766 C38.5290304,29.7892926 40.9341088,32.336855 44.0159543,32.41208 C47.0977997,32.4873049 49.6082648,30.0597264 49.6832933,26.9698104 Z M47.6800938,26.9209142 C47.6328258,28.8675613 46.0062855,30.4510263 44.0647228,30.4036346 C42.1231602,30.3562428 40.5599905,28.6949199 40.6072585,26.7482728 C40.6545264,24.8016258 42.2957257,23.249436 44.2372884,23.2968278 C46.178851,23.3442195 47.7273617,24.9742671 47.6800938,26.9209142 Z M38.2972692,27.7577458 C37.8541211,24.6990157 35.0634414,22.6380658 32.0279541,23.0801527 C29.8161669,23.4022764 28.3890584,24.6251826 28.3890584,24.6251826 C28.3346908,24.6799497 28.2847547,24.7653041 28.3024806,24.8876533 L28.8697101,28.8028278 C28.8918675,28.9557643 29.0338388,29.0756348 29.1863758,29.0534194 L32.1150872,28.6268832 C32.2828779,28.6024463 32.3871817,28.4623247 32.3628085,28.2940946 L32.187765,27.0858962 C32.1656076,26.9329597 32.0258521,26.8283828 31.8580613,26.8528198 L30.6377649,27.0305432 L30.449427,25.7305829 C30.7367752,25.5638029 31.3550169,25.2082845 32.2092244,25.0838781 C34.1311912,24.8039637 35.8739607,26.1898643 36.1487125,28.0862769 C36.42568,29.9979832 35.1526474,31.8543365 33.2459343,32.1320294 C32.4069805,32.2542142 31.5542194,32.066083 30.8141119,31.5804506 C30.6591027,31.4780953 30.5218193,31.4980891 30.4175156,31.6382107 L29.615809,32.7700336 C29.5115053,32.9101551 29.5533479,33.0914574 29.6931034,33.1960343 C30.8588683,33.9320011 32.2482378,34.2762262 33.6210713,34.0762874 C36.6565586,33.6342004 38.7404172,30.8164759 38.2972692,27.7577458 L38.2972692,27.7577458 Z" id="WEB-TECHNOLOGIST-LOG" fill="#000000" sketch:type="MSShapeGroup" transform="translate(74.386864, 79.585250) rotate(-237.000000) translate(-74.386864, -79.585250) "></path>
        </g>
    </g>
</svg>